<?xml version="1.0" encoding="UTF-8" standalone="no"?>
<!-- Created with Inkscape (http://www.inkscape.org/) -->

<svg
   width="112.47663mm"
   height="112.47663mm"
   viewBox="0 0 112.47663 112.47663"
   version="1.1"
   id="svg1"
   sodipodi:docname="CONIX.svg"
   inkscape:version="1.4.2 (f4327f4, 2025-05-13)"
   xmlns:inkscape="http://www.inkscape.org/namespaces/inkscape"
   xmlns:sodipodi="http://sodipodi.sourceforge.net/DTD/sodipodi-0.dtd"
   xmlns="http://www.w3.org/2000/svg"
   xmlns:svg="http://www.w3.org/2000/svg">
  <sodipodi:namedview
     id="namedview1"
     pagecolor="#505050"
     bordercolor="#eeeeee"
     borderopacity="1"
     inkscape:showpageshadow="0"
     inkscape:pageopacity="0"
     inkscape:pagecheckerboard="0"
     inkscape:deskcolor="#505050"
     inkscape:document-units="mm"
     inkscape:zoom="1.8183592"
     inkscape:cx="212.55426"
     inkscape:cy="212.27929"
     inkscape:window-width="1920"
     inkscape:window-height="991"
     inkscape:window-x="2391"
     inkscape:window-y="405"
     inkscape:window-maximized="1"
     inkscape:current-layer="layer1">
    <inkscape:page
       x="0"
       y="0"
       width="112.47663"
       height="112.47663"
       id="page2"
       margin="0"
       bleed="0" />
  </sodipodi:namedview>
  <defs
     id="defs1" />
  <g
     inkscape:label="Layer 1"
     inkscape:groupmode="layer"
     id="layer1"
     transform="translate(-53.521488,-36.677143)">
    <circle
       style="fill:#004447;fill-opacity:1;stroke:none;stroke-width:0.264583;stroke-opacity:1"
       id="path3"
       cx="109.7598"
       cy="92.915459"
       r="56.238316" />
    <path
       style="fill:#ffffff;fill-opacity:1;stroke:none;stroke-width:0.264583;stroke-opacity:1"
       d="m 141.9542,79.467185 11.41067,4.890286 -5.02613,-13.991656 -11.95403,-12.225721 -14.26335,-11.546515 h -20.78372 l -11.00315,0.135843 -9.644734,13.991656 c 0,0 -8.829688,12.904927 -9.780577,15.621756 -0.950889,2.716827 -4.754446,19.561151 -4.754446,21.598771 0,2.037622 2.716826,16.980165 3.939397,20.104525 1.222574,3.12435 13.176612,12.4974 13.176612,12.4974 l 21.734618,9.37305 c 0,0 19.56115,-2.44514 20.10451,-2.44514 0.54337,0 9.91642,-7.06375 9.91642,-7.06375 l 4.89029,-5.97702 c 0,0 -4.07524,-4.34692 -5.29781,-4.34692 -1.22258,0 -10.59563,4.75444 -13.17661,5.02612 -2.58099,0.27169 -14.67087,0.27169 -15.89344,0.27169 -1.22257,0 -9.23721,-5.29781 -9.916417,-6.52039 -0.679206,-1.22257 -4.346921,-6.92791 -4.346921,-8.82968 0,-1.90178 -2.445145,-14.263344 -2.445145,-16.572649 0,-2.309302 0.271683,-16.029278 0.815047,-16.572642 0.543367,-0.543365 6.384544,-10.731466 6.384544,-10.731466 l 5.841172,-5.569495 12.76909,-0.135842 13.31245,1.494255 4.21108,8.965528 z"
       id="path4" />
    <path
       style="fill:none;fill-opacity:1;stroke:#ffffff;stroke-width:2.165;stroke-dasharray:none;stroke-opacity:1"
       d="m 102.49229,93.934286 -5.501572,4.686528 0.950889,7.335426 5.094053,4.48277 6.11286,-0.47545 2.03762,-2.78475 0.40752,-5.22989 -1.6301,-5.094044 c 0,0 -3.66771,-1.90178 -3.93939,-2.03762 -0.27169,-0.135842 -3.53188,-0.88297 -3.53188,-0.88297 z"
       id="path12" />
    <path
       style="fill:#ffffff;fill-opacity:1;stroke:none;stroke-width:2.165;stroke-dasharray:none;stroke-opacity:1"
       d="m 113.76713,111.05029 1.56217,-16.504718 11.47859,-0.407524 2.98851,15.757602 -3.73563,-0.33961 -2.58099,-13.10869 -5.84118,0.407524 -1.69801,14.331266 z"
       id="path13" />
    <path
       style="fill:#ffffff;fill-opacity:1;stroke:none;stroke-width:2.165;stroke-dasharray:none;stroke-opacity:1"
       d="m 132.67151,95.516379 -0.91251,14.600261 4.13033,-0.0961 -0.96054,-14.408147 z"
       id="path14" />
    <path
       style="fill:#ffffff;fill-opacity:1;stroke:none;stroke-width:2.165;stroke-dasharray:none;stroke-opacity:1"
       d="m 132.31884,91.163802 -0.0961,2.593467 3.74612,0.144081 v -3.265847 z"
       id="path15" />
    <path
       style="fill:#ffffff;fill-opacity:1;stroke:none;stroke-width:2.165;stroke-dasharray:none;stroke-opacity:1"
       d="m 138.43477,92.868059 9.60543,17.433861 2.16123,-1.68095 -10.46992,-16.425291 z"
       id="path16" />
    <path
       style="fill:#ffffff;fill-opacity:1;stroke:none;stroke-width:2.165;stroke-dasharray:none;stroke-opacity:1"
       d="m 138.17956,107.70021 10.13374,-14.600256 1.87306,2.113196 -9.70149,13.11141 z"
       id="path17" />
  </g>
</svg>
